<?xml version="1.0" standalone="no"?>
<!DOCTYPE svg PUBLIC "-//W3C//DTD SVG 20010904//EN"
 "http://www.w3.org/TR/2001/REC-SVG-20010904/DTD/svg10.dtd">
<svg version="1.0" xmlns="http://www.w3.org/2000/svg"
 width="1556.000000pt" height="1556.000000pt" viewBox="0 0 1556.000000 1556.000000"
 preserveAspectRatio="xMidYMid meet">
<metadata>
Created by potrace 1.14, written by Peter Selinger 2001-2017
</metadata>
<g transform="translate(0.000000,1556.000000) scale(0.100000,-0.100000)"
fill="#000000" stroke="none">
<path d="M952 15547 c-6 -7 -25 -40 -41 -74 -32 -63 -84 -114 -167 -163 -51
-30 -143 -109 -244 -210 -41 -41 -98 -93 -125 -115 -28 -22 -64 -54 -82 -71
-17 -16 -47 -41 -66 -54 -47 -32 -60 -55 -47 -80 12 -23 69 -27 117 -9 51 19
187 39 271 39 87 0 236 -23 287 -45 66 -28 451 -153 535 -173 25 -6 92 -23
150 -38 161 -41 278 -48 735 -49 332 0 452 4 575 17 195 22 236 33 390 106 69
33 136 62 151 65 14 4 63 32 110 63 90 61 150 86 271 113 42 10 89 26 104 36
26 17 27 19 9 25 -11 4 -40 5 -65 3 -94 -8 -296 -46 -323 -59 -15 -9 -87 -38
-159 -65 -72 -28 -165 -67 -207 -88 -42 -21 -92 -41 -111 -45 -45 -10 -275
-33 -460 -47 -206 -15 -799 -6 -908 14 -45 9 -86 18 -90 21 -4 2 -43 11 -87
20 -95 19 -436 119 -575 167 -126 45 -357 62 -460 34 -59 -16 -76 -12 -45 11
64 46 151 125 187 168 23 28 48 55 56 60 8 4 43 35 79 67 36 32 70 59 75 59 6
0 41 24 77 54 57 46 73 66 108 139 23 47 46 88 52 92 23 13 10 25 -28 25 -21
0 -43 -6 -49 -13z"/>
<path d="M5405 15411 c-16 -16 -57 -66 -90 -112 -33 -46 -80 -110 -105 -144
-25 -33 -63 -92 -84 -130 -21 -39 -62 -108 -91 -155 -28 -47 -72 -123 -97
-170 -25 -47 -73 -132 -107 -190 -64 -110 -135 -287 -192 -475 -18 -60 -50
-150 -71 -198 -85 -195 -147 -445 -167 -672 -5 -62 -14 -94 -39 -142 -18 -34
-38 -65 -43 -69 -6 -3 -20 -27 -31 -53 -13 -30 -43 -68 -90 -110 -38 -35 -94
-98 -123 -140 -56 -79 -213 -238 -277 -281 -20 -13 -47 -41 -61 -62 -24 -38
-211 -184 -281 -220 -22 -11 -61 -38 -88 -59 -28 -21 -54 -39 -58 -39 -5 0
-39 -27 -77 -60 -37 -32 -93 -71 -123 -87 -30 -15 -71 -37 -90 -48 -19 -12
-66 -34 -105 -49 -59 -24 -81 -40 -141 -104 -40 -43 -132 -131 -205 -197 -73
-66 -203 -187 -288 -270 -86 -82 -190 -178 -231 -212 -41 -34 -97 -85 -124
-113 -38 -39 -55 -50 -75 -48 -23 3 -27 10 -39 63 -24 114 -32 160 -42 225 -9
66 -22 121 -35 153 -9 22 -48 39 -70 30 -18 -6 -82 -129 -119 -225 -57 -151
-104 -232 -193 -336 -48 -56 -113 -134 -143 -172 -30 -39 -76 -85 -101 -103
-89 -61 -124 -91 -201 -169 -58 -59 -86 -97 -117 -160 -49 -101 -49 -102 -136
-167 -38 -29 -76 -60 -82 -69 -13 -16 -96 -108 -200 -222 -68 -74 -126 -160
-136 -200 -4 -14 -23 -48 -44 -75 -21 -28 -49 -74 -62 -103 -14 -29 -27 -52
-31 -52 -3 0 -17 18 -30 41 -14 22 -35 53 -47 67 l-22 27 -1 -95 0 -96 40 -42
c35 -36 46 -42 83 -42 l42 0 34 73 c18 39 49 101 69 137 20 36 46 90 57 120
25 66 75 134 189 255 57 60 88 87 95 80 5 -5 13 -50 16 -100 6 -82 36 -233 70
-345 8 -25 18 -74 24 -110 36 -224 43 -265 52 -287 5 -13 9 -45 9 -71 0 -26 7
-85 16 -132 27 -156 55 -478 41 -487 -14 -8 1 -724 18 -885 26 -242 58 -342
180 -568 13 -25 25 -57 25 -72 0 -28 -1 -28 -62 -28 -38 -1 -77 -8 -98 -18
l-35 -17 -6 -315 c-7 -344 -13 -398 -51 -510 -48 -140 -58 -179 -58 -224 0
-25 -5 -48 -11 -51 -7 -5 -9 -67 -6 -188 4 -162 7 -190 30 -257 31 -91 62
-169 110 -275 51 -114 105 -248 134 -335 29 -86 61 -157 80 -176 35 -35 108
-155 135 -223 49 -123 78 -173 133 -233 29 -31 65 -82 79 -112 27 -56 93 -122
133 -132 13 -4 23 -8 23 -10 0 -2 -18 -20 -41 -41 -31 -29 -42 -48 -46 -81 -5
-37 -3 -42 15 -42 11 0 27 11 36 25 23 35 74 65 110 65 24 0 150 55 181 80 6
4 43 25 82 45 40 21 102 63 137 94 36 31 105 90 153 131 146 125 223 202 266
265 22 33 54 74 71 92 17 17 56 73 86 124 30 51 71 113 92 137 20 24 53 87 73
138 21 52 39 94 41 94 2 0 12 -21 24 -47 11 -26 31 -61 45 -79 13 -17 27 -44
31 -60 4 -16 20 -57 35 -92 16 -35 31 -80 35 -100 10 -64 24 -104 64 -187 100
-210 153 -383 170 -560 30 -304 35 -375 34 -500 0 -77 -4 -160 -8 -185 -13
-76 20 -86 199 -60 50 7 200 14 334 17 296 5 355 -4 511 -79 58 -28 146 -64
195 -80 50 -17 99 -37 110 -44 11 -8 33 -14 50 -14 16 0 53 -8 80 -17 67 -22
188 -33 442 -39 l212 -5 -19 -50 c-10 -28 -36 -69 -57 -92 -50 -54 -69 -100
-57 -135 10 -27 28 -35 124 -51 25 -4 61 -15 80 -23 19 -9 55 -24 80 -34 29
-12 82 -54 150 -119 118 -113 161 -147 215 -174 l38 -18 -25 -17 c-36 -23
-127 -56 -158 -56 -37 0 -108 -24 -126 -41 -21 -22 -2 -63 43 -90 19 -12 45
-38 57 -58 13 -20 30 -42 39 -49 8 -7 30 -38 48 -68 35 -57 52 -82 105 -156
27 -37 79 -150 124 -268 7 -19 17 -39 21 -45 4 -5 12 -37 19 -70 6 -33 18 -87
25 -120 8 -33 14 -77 14 -98 0 -21 8 -53 16 -71 9 -19 15 -51 13 -72 -3 -33
-7 -39 -33 -45 -134 -33 -326 -110 -420 -169 -58 -36 -180 -147 -196 -178 -8
-14 -33 -60 -56 -101 -53 -94 -55 -111 -9 -111 28 0 35 4 40 26 9 35 103 170
132 189 13 8 46 35 74 60 27 24 83 60 122 79 130 61 307 121 346 117 13 -1 39
9 58 24 34 26 34 27 34 102 0 59 -4 81 -17 96 -11 12 -21 44 -25 86 -14 139
-32 217 -68 296 -10 23 -23 59 -29 80 -6 22 -25 64 -41 94 -17 30 -30 59 -30
64 0 6 -24 42 -53 81 -29 39 -79 110 -110 157 -31 47 -77 106 -102 131 l-46
45 69 6 c67 5 180 50 197 76 7 13 141 76 225 107 38 14 87 24 117 24 64 0 103
16 103 43 0 11 -16 41 -35 67 -19 26 -35 50 -35 54 0 3 55 6 123 6 67 0 127 4
133 8 23 16 22 44 -5 104 -16 35 -36 92 -44 128 -9 36 -30 108 -47 160 -62
188 -70 221 -70 288 0 37 -4 82 -9 100 -14 47 6 42 113 -27 50 -32 110 -68
133 -80 23 -11 45 -26 48 -31 7 -12 122 -70 138 -70 6 0 34 -16 63 -35 105
-70 136 -79 279 -81 72 -1 186 -8 255 -14 69 -7 175 -15 235 -19 61 -4 157
-17 215 -29 58 -13 137 -30 177 -38 40 -9 83 -24 96 -34 13 -10 37 -22 53 -26
45 -11 191 -91 242 -132 26 -20 87 -80 136 -132 50 -52 136 -141 192 -198
l103 -102 5 -83 c3 -45 9 -134 13 -197 5 -63 12 -121 16 -127 15 -24 57 -15
68 13 11 32 11 224 -1 239 -5 6 -4 46 1 90 6 44 14 134 19 200 4 66 13 138 19
160 6 22 11 65 11 95 1 30 14 105 31 165 34 127 53 223 70 350 6 50 20 115 30
146 11 30 19 68 19 83 0 15 14 83 31 149 18 67 35 151 40 187 4 36 15 88 24
115 9 28 20 84 25 125 20 156 27 186 48 216 22 29 23 34 19 279 -2 142 -9 271
-15 297 -7 27 -16 67 -21 90 -5 24 -13 57 -19 73 -13 39 -32 121 -32 140 0 10
27 -6 75 -42 142 -111 224 -167 259 -179 42 -15 53 -22 267 -161 20 -13 64
-32 97 -42 34 -11 74 -28 89 -39 16 -11 48 -25 73 -32 25 -6 55 -18 67 -26 13
-8 82 -34 155 -58 169 -56 239 -87 303 -135 27 -21 71 -50 98 -65 26 -15 54
-37 62 -50 9 -13 26 -28 39 -34 14 -6 32 -27 42 -47 9 -20 30 -43 47 -52 41
-21 145 -92 153 -104 3 -5 10 -7 15 -4 5 3 6 -1 3 -10 -9 -23 67 -98 133 -130
29 -15 79 -49 111 -76 60 -52 97 -68 114 -51 17 17 -176 202 -211 202 -5 0
-23 11 -39 25 -16 13 -33 21 -37 17 -5 -4 -5 -1 -1 6 10 17 -52 97 -99 129
-19 13 -35 30 -35 39 0 8 -7 17 -15 20 -14 6 -22 34 -10 34 32 0 181 51 260
90 55 26 138 60 185 76 263 86 321 109 427 170 62 36 141 91 175 122 56 51
292 236 325 256 9 5 11 1 7 -11 -3 -11 0 -9 8 5 17 27 52 52 133 94 33 17 102
60 154 95 115 78 233 139 298 153 26 6 69 19 95 30 26 11 77 26 115 34 38 8
104 30 148 49 74 32 226 84 355 122 76 23 592 22 627 0 18 -12 21 -13 17 -1
-3 8 4 16 20 20 27 7 42 41 32 73 -3 10 -32 37 -65 61 -82 60 -145 120 -172
167 -13 22 -49 67 -80 100 -31 33 -92 103 -135 156 -44 53 -114 136 -158 185
-93 105 -248 309 -275 362 -11 20 -31 52 -45 71 -14 19 -26 45 -26 58 0 12
-31 84 -69 160 -67 133 -72 148 -140 425 -39 158 -73 311 -76 340 -4 29 -15
80 -26 113 -10 33 -25 92 -33 130 -8 39 -22 93 -31 120 -16 51 -27 111 -45
245 -5 41 -14 100 -20 130 -5 30 -13 73 -17 94 l-6 39 29 -8 c52 -14 543 -18
615 -5 49 9 108 10 239 2 99 -5 184 -6 197 -1 12 4 26 20 29 36 6 21 2 30 -16
42 -13 9 -75 67 -139 129 -64 62 -134 125 -157 140 -71 48 -153 117 -150 126
1 6 13 13 27 17 42 11 203 96 250 131 53 41 131 73 219 92 106 22 153 37 186
57 38 23 93 24 160 4 59 -18 94 -19 94 -4 0 8 4 9 13 0 16 -13 27 -5 27 19 0
36 -46 63 -122 70 -41 4 -95 17 -123 29 -27 13 -75 25 -105 29 -77 8 -218 79
-321 162 -88 71 -353 352 -408 433 -8 12 -38 48 -68 80 -61 67 -102 133 -113
183 -7 29 -4 38 13 54 11 11 28 20 37 20 41 0 202 129 224 180 15 33 42 72 91
129 23 25 58 80 79 121 21 41 44 82 50 90 7 8 25 54 41 103 15 48 31 90 35 92
5 3 16 29 25 58 10 28 21 56 26 62 5 5 9 24 9 42 0 24 -7 37 -25 49 -23 15
-30 15 -102 -5 -45 -12 -91 -32 -112 -49 -20 -16 -50 -36 -66 -44 -57 -30
-240 -89 -381 -124 -77 -19 -170 -46 -205 -59 -97 -39 -273 -83 -379 -95 -381
-45 -743 -64 -1040 -55 -298 8 -547 8 -772 0 -98 -4 -178 -5 -178 -2 0 12 64
178 103 268 52 120 86 206 132 339 18 52 56 145 84 205 122 257 195 485 236
729 9 55 18 102 20 106 5 9 44 226 56 315 5 39 14 156 18 260 9 185 24 318 56
478 10 52 15 137 15 252 0 107 4 184 11 202 7 15 15 48 19 73 4 25 17 70 28
100 30 84 108 326 132 410 12 41 39 120 60 175 21 55 61 161 88 235 61 164 97
250 134 313 16 27 35 65 44 85 8 20 25 48 38 62 12 14 35 46 49 72 15 25 58
79 96 120 38 40 66 74 62 76 -44 16 -232 -183 -301 -317 -11 -23 -36 -66 -55
-95 -36 -56 -44 -74 -161 -361 -79 -194 -165 -424 -189 -505 -31 -105 -66
-195 -82 -213 -10 -10 -41 -34 -69 -53 -28 -18 -75 -55 -106 -81 -30 -27 -97
-84 -149 -128 -52 -44 -135 -116 -185 -161 -49 -45 -135 -107 -189 -139 -95
-56 -182 -114 -385 -253 -52 -36 -184 -137 -293 -225 -109 -87 -218 -168 -243
-178 -24 -11 -68 -41 -98 -67 -96 -84 -355 -195 -501 -214 -44 -5 -105 -14
-135 -19 -30 -5 -95 -13 -145 -18 -153 -16 -195 -28 -382 -108 -20 -8 -15 19
18 98 17 41 37 92 45 114 7 22 32 92 55 155 83 229 108 306 120 372 11 62 11
70 -6 88 -22 25 -71 26 -106 2 -15 -9 -118 -103 -230 -209 -213 -200 -330
-298 -427 -356 -31 -20 -87 -55 -123 -79 -37 -24 -147 -90 -245 -147 -196
-114 -291 -173 -524 -326 -217 -142 -432 -268 -558 -326 -59 -28 -206 -99
-327 -159 -121 -60 -247 -115 -280 -123 -123 -31 -241 -65 -279 -81 -117 -49
-510 -143 -701 -167 -38 -5 -101 -14 -140 -20 -38 -6 -158 -13 -265 -15 -207
-4 -201 -3 -418 -74 -45 -15 -85 -23 -88 -19 -20 33 28 277 71 359 8 16 15 45
15 64 0 47 28 153 53 201 18 34 22 65 28 205 4 91 12 199 18 240 10 65 67 267
91 325 5 11 11 52 14 90 14 168 25 256 34 268 5 7 12 71 16 142 21 427 23 448
57 625 19 96 69 262 105 347 19 46 32 88 28 95 -4 6 -3 8 4 4 6 -4 14 10 20
36 6 24 19 70 30 103 11 33 32 98 47 145 39 123 89 240 142 333 25 45 69 125
96 177 27 52 74 137 103 188 30 51 66 116 80 143 14 28 56 96 93 152 38 56 83
129 102 162 18 33 37 62 41 63 4 2 8 10 8 18 0 8 5 14 10 14 6 0 10 5 10 10 0
17 -14 11 -45 -19z m3236 -2782 c-5 -13 -10 -19 -10 -12 -1 15 10 45 15 40 3
-2 0 -15 -5 -28z m2064 -1001 c-2 -35 -7 -111 -11 -169 l-6 -106 -151 -7
c-196 -9 -428 -33 -542 -56 -234 -48 -377 -81 -455 -105 -182 -56 -134 -32 95
48 407 143 508 184 788 323 148 74 274 134 279 134 5 0 6 -28 3 -62z m-3084
-240 c-33 -187 -95 -600 -95 -640 0 -32 -4 -37 -31 -45 -23 -7 -31 -15 -33
-36 -2 -15 -2 -27 0 -27 124 0 844 164 1142 261 48 15 53 10 14 -14 -35 -22
-98 -91 -98 -107 0 -4 -13 -10 -30 -13 -18 -4 -30 -13 -30 -22 0 -25 132 -20
258 11 59 14 122 26 141 25 19 0 48 5 65 13 45 19 121 36 161 36 20 0 61 6 93
14 31 8 109 26 172 41 63 14 174 39 245 56 72 16 189 41 260 55 72 14 231 48
354 76 123 27 280 60 349 73 l125 22 -7 -136 c-16 -352 -18 -430 -11 -447 15
-35 13 -107 -5 -147 -20 -44 -17 -68 11 -93 17 -15 44 -16 301 -10 366 8 487
7 556 -5 78 -12 708 -11 851 2 423 38 520 51 651 85 74 19 155 44 179 55 24
10 45 19 47 19 2 0 4 -54 4 -120 0 -104 -3 -125 -20 -148 -14 -20 -22 -54 -28
-130 -5 -56 -11 -104 -14 -107 -2 -2 -37 0 -78 6 -376 51 -501 57 -770 40
-209 -14 -324 -26 -390 -40 -54 -11 -181 -25 -385 -41 -55 -4 -124 -13 -154
-19 -29 -6 -78 -11 -107 -11 -30 0 -82 -9 -116 -19 -35 -10 -92 -24 -128 -31
-36 -6 -87 -24 -115 -39 -58 -32 -108 -50 -156 -55 -19 -2 -77 -9 -129 -14
-53 -6 -117 -20 -143 -31 -27 -12 -76 -27 -110 -35 -65 -16 -207 -77 -244
-106 -12 -9 -55 -27 -95 -39 -40 -13 -84 -27 -98 -33 -14 -5 -50 -18 -80 -28
-30 -10 -104 -39 -165 -64 -60 -25 -116 -46 -123 -46 -18 0 -57 -28 -169 -120
-106 -87 -142 -112 -200 -140 -23 -11 -60 -36 -83 -55 -23 -19 -48 -35 -54
-35 -25 0 -136 -83 -142 -106 -14 -54 36 -81 94 -50 26 14 138 48 197 61 17 4
48 15 70 25 22 10 105 28 185 40 80 13 233 45 339 71 107 27 197 46 200 44 2
-3 -8 -30 -23 -61 -41 -84 -58 -221 -53 -428 2 -94 9 -191 16 -216 6 -25 14
-63 17 -85 8 -54 91 -268 128 -330 30 -49 50 -78 132 -186 90 -118 382 -359
436 -359 10 0 38 -10 61 -22 23 -11 94 -39 157 -60 l115 -40 220 -5 c225 -5
275 -1 455 36 52 10 111 22 130 25 151 26 398 200 484 340 10 17 36 54 57 82
100 131 209 375 209 468 0 25 8 67 19 93 29 76 37 261 16 376 -21 111 -92 342
-109 356 -7 6 -25 35 -40 64 -15 30 -74 105 -132 168 l-105 114 80 3 c78 3
103 14 61 27 -11 3 -20 11 -20 16 0 6 37 10 93 9 50 -1 139 1 197 4 58 3 168
5 245 4 77 -1 177 -2 223 -2 81 -1 82 -1 82 -26 0 -28 -24 -194 -39 -280 -6
-30 -18 -93 -26 -140 -27 -142 -67 -324 -77 -342 -5 -10 -33 -113 -62 -230
-60 -235 -160 -550 -241 -758 -101 -259 -320 -705 -377 -770 -30 -34 -118
-202 -118 -226 0 -6 -7 -17 -15 -24 -20 -17 -19 -30 4 -30 46 0 302 277 401
434 l42 66 36 -19 c20 -10 82 -24 138 -31 86 -10 113 -10 186 4 46 9 89 16 95
16 6 0 16 -29 23 -65 10 -55 10 -81 -4 -167 -26 -160 -61 -333 -116 -578 -28
-124 -57 -254 -65 -290 -8 -36 -39 -162 -69 -280 -139 -553 -207 -780 -295
-992 -26 -62 -38 -78 -63 -89 -74 -30 -316 -211 -489 -363 -74 -66 -244 -161
-349 -194 -52 -17 -147 -48 -210 -68 -63 -20 -157 -59 -209 -85 -52 -27 -111
-51 -130 -55 -20 -3 -53 -12 -74 -20 -20 -8 -58 -14 -82 -14 -45 0 -86 22
-224 121 -69 50 -185 104 -328 153 -73 25 -149 54 -170 64 -21 11 -51 22 -66
26 -16 4 -45 17 -65 30 -20 12 -61 30 -91 40 -30 10 -93 43 -140 74 -47 31
-126 77 -176 102 -49 25 -112 61 -139 80 -121 85 -190 141 -212 172 -34 46
-64 68 -96 68 -36 0 -41 -21 -35 -136 5 -95 17 -171 32 -194 5 -8 12 -35 16
-60 4 -25 12 -72 18 -105 7 -35 12 -150 11 -274 -1 -173 -4 -216 -16 -228 -28
-28 -35 -55 -49 -176 -8 -67 -24 -148 -35 -180 -11 -32 -25 -91 -30 -130 -5
-40 -16 -92 -24 -117 -8 -25 -24 -90 -36 -145 -12 -55 -26 -113 -32 -130 -14
-47 -38 -186 -38 -230 0 -22 -9 -74 -21 -115 -58 -219 -69 -268 -69 -324 0
-34 -9 -96 -20 -140 -11 -43 -20 -108 -20 -145 l-1 -66 -29 35 c-16 19 -41 47
-55 62 -14 15 -47 55 -73 90 -64 86 -284 298 -309 298 -5 0 -34 15 -64 33 -30
18 -70 39 -89 46 -19 7 -62 26 -95 41 -56 26 -83 33 -225 62 -30 6 -84 19
-120 28 -37 10 -121 21 -195 24 -71 4 -155 8 -185 10 -30 3 -134 8 -230 13
-166 9 -178 10 -225 37 -27 16 -60 37 -73 47 -13 10 -47 25 -75 34 -29 10 -68
29 -87 44 -19 15 -64 42 -100 60 -36 18 -78 43 -95 56 -38 28 -132 78 -175 94
-27 9 -38 8 -58 -5 -22 -14 -23 -20 -18 -77 3 -34 8 -102 11 -152 3 -49 14
-119 25 -155 10 -36 27 -94 36 -130 9 -36 23 -83 30 -105 8 -22 22 -71 33
-110 10 -38 21 -77 25 -86 6 -14 -9 -17 -119 -22 -166 -8 -183 -22 -126 -108
32 -47 32 -59 -2 -59 -31 0 -98 -25 -205 -75 l-93 -44 -35 24 c-20 14 -66 60
-103 102 -36 43 -97 110 -136 149 -59 60 -82 75 -145 99 -41 16 -84 35 -95 42
-11 7 -32 13 -46 13 -58 0 -62 9 -24 51 19 21 48 67 63 101 16 35 45 78 66 96
20 18 36 41 36 52 0 23 -25 50 -48 51 -9 1 -141 5 -292 10 -369 13 -387 14
-449 33 -30 9 -69 16 -86 16 -17 0 -40 7 -52 15 -11 8 -55 24 -98 36 -43 11
-105 34 -139 49 -124 57 -183 78 -261 93 -102 20 -547 34 -596 19 -19 -6 -64
-12 -101 -15 l-67 -5 -4 177 c-6 267 -25 493 -53 627 -26 129 -100 339 -159
451 -19 38 -42 101 -50 141 -8 40 -27 95 -41 124 -14 28 -32 73 -40 98 -8 26
-27 64 -43 84 -17 21 -35 54 -42 74 -6 20 -27 67 -45 103 -53 106 -86 104
-143 -9 -21 -42 -42 -88 -46 -102 -14 -48 -66 -148 -86 -166 -11 -10 -43 -59
-71 -108 -28 -50 -74 -120 -103 -156 -28 -36 -62 -81 -75 -100 -34 -51 -88
-107 -145 -150 -27 -20 -100 -84 -161 -141 -127 -119 -188 -169 -204 -169 -6
0 -22 -8 -36 -17 -22 -14 -27 -14 -35 -2 -5 8 -9 19 -9 26 0 6 -11 25 -25 42
-14 16 -38 54 -53 83 -16 29 -49 93 -75 142 -79 151 -182 445 -175 501 1 12
-2 28 -8 36 -12 16 -15 31 -44 239 -12 80 -36 217 -55 305 -57 270 -116 665
-155 1040 -14 137 -49 405 -56 426 -3 10 5 20 21 27 41 19 42 54 1 141 -34 72
-36 83 -36 176 0 54 4 149 10 209 5 61 14 174 20 251 35 440 58 635 85 740 9
33 25 101 36 150 38 170 32 160 97 186 31 13 105 47 164 75 58 29 157 73 218
99 62 25 131 54 154 64 22 10 74 33 114 49 l72 31 0 -52 c0 -144 79 -437 151
-560 23 -40 53 -94 66 -121 33 -66 131 -210 183 -268 72 -82 373 -251 530
-298 162 -49 181 -51 421 -57 l236 -5 104 32 c57 18 163 57 234 85 72 29 141
56 155 60 14 4 79 45 145 90 121 83 219 174 248 231 9 17 23 36 31 43 23 19
93 150 116 215 10 30 33 124 50 208 28 134 32 174 33 323 0 129 -4 187 -17
240 -23 94 -54 183 -79 224 -20 33 -20 34 -1 27 10 -4 38 -14 61 -22 23 -8 75
-28 115 -45 40 -17 100 -41 134 -53 33 -12 81 -34 105 -48 109 -64 213 -111
247 -112 36 -1 36 -1 44 49 7 48 6 51 -29 88 -27 27 -33 37 -20 37 28 0 19 14
-35 55 -29 22 -84 65 -123 96 -81 65 -232 169 -247 169 -6 0 -25 13 -43 29
-19 16 -59 39 -91 50 -31 12 -69 30 -83 39 -14 10 -97 53 -183 95 -87 43 -158
80 -158 81 0 5 183 76 195 76 5 0 17 -7 26 -16 10 -9 35 -20 56 -25 171 -38
332 -93 402 -138 25 -16 84 -48 131 -71 47 -22 107 -56 135 -75 27 -19 57 -33
66 -30 23 7 96 -20 131 -50 30 -26 83 -34 90 -14 3 9 10 9 26 0 41 -22 43 0 5
46 -114 137 -121 142 -308 235 -106 52 -153 74 -193 89 -18 6 -58 28 -90 47
-31 19 -90 47 -131 62 -41 14 -76 31 -78 36 -2 6 90 45 204 88 115 43 264 100
333 126 69 27 208 80 310 119 447 169 736 285 1010 406 209 92 366 156 440
179 30 10 72 26 92 36 l37 18 -6 -30 c-8 -41 14 -34 40 12 11 19 28 45 38 59
10 13 19 31 19 41 0 9 15 50 34 91 40 88 99 253 157 439 23 74 44 140 48 145
15 24 10 -74 -8 -177z m4680 -2156 c16 -18 29 -40 29 -50 0 -9 9 -30 20 -47
25 -37 27 -141 5 -189 -9 -18 -40 -57 -71 -87 l-55 -54 -85 -4 c-80 -3 -89 -1
-151 30 -89 46 -97 60 -101 185 -4 91 -2 107 17 137 31 50 51 65 127 92 57 21
84 25 152 23 80 -3 85 -4 113 -36z m-7868 -9 c65 -23 92 -52 130 -138 52 -119
39 -213 -36 -269 -25 -18 -45 -21 -155 -24 -155 -4 -161 0 -222 121 -34 67
-41 90 -37 122 8 70 37 133 78 170 37 34 42 35 115 35 47 0 96 -7 127 -17z
m-858 -243 c30 -7 30 -7 5 -13 -124 -29 -396 -31 -485 -4 -37 11 -28 12 110
17 223 8 336 8 370 0z m7973 -80 c137 -15 231 -30 237 -40 3 -5 -9 -15 -26
-24 -56 -28 -181 -49 -314 -53 -71 -2 -189 -6 -262 -10 -105 -4 -151 -2 -223
12 -98 19 -187 51 -229 83 l-26 20 58 7 c32 4 77 5 100 2 23 -2 65 -1 92 3 76
11 483 11 593 0z m392 -86 c30 -9 71 -19 90 -23 19 -5 55 -14 80 -21 43 -12
44 -13 20 -22 -39 -16 -160 -13 -205 5 -25 10 -33 16 -20 16 17 1 15 4 -9 16
-15 8 -35 15 -42 15 -15 0 -19 12 -7 23 10 11 33 8 93 -9z m-8927 -124 c2 -8
-1 -28 -5 -45 -9 -31 -9 -123 0 -139 3 -5 7 -32 9 -60 4 -55 43 -122 82 -142
11 -6 18 -14 15 -17 -4 -3 6 -9 21 -13 17 -4 23 -9 15 -14 -7 -5 5 -16 34 -30
25 -12 46 -26 46 -32 0 -5 9 -6 21 -3 13 5 19 3 15 -3 -9 -15 28 -22 139 -29
97 -5 103 -5 179 27 57 24 99 51 157 102 100 89 111 117 113 272 l1 115 195
-6 c107 -3 276 -8 375 -12 l180 -6 -2 -35 c-5 -111 -24 -244 -43 -305 -12 -38
-31 -101 -42 -140 -34 -117 -83 -198 -177 -298 -79 -84 -128 -116 -281 -186
-74 -35 -144 -67 -155 -73 -26 -15 -149 -57 -210 -72 -66 -17 -392 -5 -485 18
-164 40 -257 74 -360 132 -172 96 -193 111 -238 163 -55 64 -152 203 -152 217
0 5 -16 34 -36 64 -87 135 -148 301 -179 493 -6 37 -6 37 30 37 19 0 149 7
288 15 453 27 445 27 450 5z m305 -60 c23 -16 49 -30 57 -30 12 0 15 -15 15
-80 0 -64 -3 -80 -15 -80 -8 0 -35 -14 -59 -32 -38 -26 -44 -36 -40 -55 6 -21
3 -23 -29 -23 -52 0 -87 16 -87 39 0 11 -9 25 -20 31 -11 6 -20 17 -20 25 0 8
-4 15 -10 15 -6 0 -10 33 -10 80 l0 80 30 0 c16 0 39 8 49 17 17 14 67 37 92
42 3 0 25 -12 47 -29z m9088 -132 c-10 -150 -11 -161 -24 -185 -7 -12 -12 -42
-12 -66 0 -25 -8 -62 -17 -83 -9 -22 -18 -52 -21 -69 -2 -16 -10 -37 -18 -46
-8 -8 -14 -20 -14 -26 0 -9 -38 -77 -105 -187 -26 -43 -136 -166 -148 -166 -6
0 -29 -16 -52 -35 -46 -37 -124 -69 -195 -79 -24 -4 -49 -11 -55 -16 -6 -5
-56 -19 -111 -30 -54 -11 -122 -26 -150 -32 -50 -10 -325 -6 -403 6 -40 6
-221 65 -236 76 -5 5 -35 17 -65 27 -65 23 -212 124 -293 202 -69 66 -205 238
-235 298 -42 81 -98 248 -106 314 -4 30 -9 66 -12 80 l-5 25 341 -3 c230 -3
340 0 340 7 0 5 7 10 16 10 8 0 23 7 32 16 10 11 17 13 20 5 2 -6 20 -11 41
-11 27 0 49 -9 79 -32 23 -18 42 -37 42 -43 0 -5 18 -23 40 -39 27 -20 40 -38
40 -53 0 -15 6 -23 16 -23 9 0 22 -7 28 -15 6 -9 25 -18 41 -21 17 -3 32 -9
33 -15 2 -5 12 -9 23 -9 10 0 19 -6 19 -12 1 -21 78 -68 110 -68 17 0 30 -4
30 -8 0 -5 12 -14 26 -21 15 -7 24 -17 21 -25 -9 -24 72 -9 110 20 37 28 73
91 73 128 0 13 11 47 25 74 13 27 31 77 39 112 8 35 19 66 23 70 7 7 108 15
513 40 63 4 126 7 139 8 l24 2 -7 -102z m-9311 -168 c3 -5 1 -10 -4 -10 -6 0
-11 5 -11 10 0 6 2 10 4 10 3 0 8 -4 11 -10z m99 -75 c-7 -16 -24 -21 -24 -6
0 8 7 13 27 20 1 1 0 -6 -3 -14z"/>
<path d="M10108 9915 c-37 -7 -72 -16 -77 -19 -13 -8 -229 -36 -280 -36 -82 0
-169 -21 -214 -51 -32 -22 -54 -29 -92 -29 -69 -1 -135 -17 -169 -42 -16 -11
-63 -29 -104 -39 -42 -11 -87 -27 -100 -37 -14 -9 -30 -20 -36 -25 -6 -4 -28
-14 -48 -22 -33 -13 -37 -18 -32 -43 4 -21 -1 -33 -25 -56 -42 -40 -39 -50 9
-26 21 11 42 20 45 20 3 0 -22 -32 -55 -71 -34 -39 -59 -73 -57 -76 3 -2 31 7
63 20 33 14 70 28 84 32 14 4 52 31 85 59 65 56 127 102 208 153 47 30 60 33
127 33 63 0 85 5 137 30 47 23 80 31 140 35 200 14 359 41 523 90 41 13 109
28 150 35 84 14 110 24 110 44 0 26 -293 42 -392 21z"/>
<path d="M2366 7182 c-3 -5 -3 -24 0 -42 5 -25 18 -38 61 -62 40 -23 52 -35
48 -48 -8 -25 11 -35 100 -49 59 -10 85 -19 101 -36 38 -41 137 -53 484 -59
254 -4 327 -3 375 9 33 8 81 14 107 15 77 0 270 52 297 79 10 10 25 20 34 24
9 3 17 13 17 21 0 9 18 25 39 36 42 21 61 40 39 40 -27 -1 -105 -26 -128 -40
-16 -10 -54 -17 -109 -18 -46 -2 -107 -7 -135 -13 -28 -5 -52 -6 -53 -2 -2 5
-170 7 -374 5 -314 -3 -377 -1 -417 12 -26 9 -74 21 -107 27 -115 21 -269 71
-287 92 -16 20 -17 21 -35 4 -17 -15 -21 -15 -35 -1 -9 10 -18 12 -22 6z m144
-87 c14 -8 19 -14 10 -14 -8 0 -26 6 -40 14 -14 8 -19 14 -10 14 8 0 26 -6 40
-14z"/>
<path d="M10580 6969 c25 -11 108 -36 185 -55 77 -19 156 -38 175 -44 19 -5
60 -12 90 -15 30 -4 100 -13 155 -21 121 -17 608 -19 705 -3 75 12 299 77 318
92 40 31 -10 55 -84 39 -34 -7 -54 -7 -68 0 -15 8 -21 8 -24 -1 -3 -9 -43 -10
-161 -6 -86 4 -376 11 -646 16 -269 6 -535 12 -590 14 l-100 4 45 -20z"/>
<path d="M7286 6778 c-24 -35 -22 -142 4 -168 26 -26 46 -25 75 5 21 20 25 34
25 82 0 71 -19 103 -60 103 -18 0 -34 -8 -44 -22z"/>
<path d="M6925 4610 c-11 -5 -38 -9 -61 -9 -50 -1 -79 -20 -70 -47 6 -18 20
-19 363 -21 197 -2 401 -8 453 -14 52 -6 116 -13 141 -16 56 -6 89 9 89 41 0
37 -22 44 -205 65 -100 12 -683 13 -710 1z"/>
<path d="M12246 8004 c-10 -21 -21 -42 -23 -46 -2 -5 -2 -8 1 -8 9 0 48 70 44
82 -2 6 -12 -6 -22 -28z"/>
<path d="M12203 7925 c-3 -9 -3 -18 -1 -21 3 -3 8 4 11 16 6 23 -1 27 -10 5z"/>
<path d="M13457 1992 c-9 -10 -17 -24 -17 -30 0 -22 85 -189 146 -287 66 -107
99 -162 122 -210 8 -16 23 -42 33 -56 10 -14 17 -35 16 -46 -1 -19 -9 -20
-241 -22 -133 -1 -263 -7 -290 -12 -27 -5 -142 -9 -255 -9 -200 0 -207 -1
-241 -23 -19 -13 -48 -28 -65 -34 -19 -6 -34 -20 -40 -37 -8 -24 -5 -30 43
-72 61 -53 91 -95 157 -219 57 -108 91 -155 111 -155 28 0 25 28 -9 77 -19 26
-42 68 -51 93 -37 94 -78 168 -111 200 -19 19 -35 37 -35 42 0 4 19 17 41 29
39 19 56 21 228 19 102 -1 249 3 326 8 77 6 183 8 235 5 97 -6 217 12 261 40
31 19 26 88 -12 143 -17 25 -46 77 -65 115 -20 39 -53 97 -73 128 -47 68 -121
203 -121 219 0 18 80 4 199 -35 57 -18 109 -33 115 -33 7 0 35 -11 62 -25 27
-14 72 -29 99 -34 66 -12 249 -73 300 -99 22 -11 56 -36 74 -56 19 -20 38 -36
42 -36 4 0 37 -18 73 -40 37 -23 72 -38 79 -34 7 4 9 3 4 -1 -4 -5 5 -21 20
-37 22 -23 29 -26 42 -15 14 10 14 10 3 -4 -10 -13 -10 -18 1 -28 8 -6 18 -7
22 -3 5 4 6 2 2 -3 -8 -16 19 -47 39 -43 10 1 19 8 21 13 7 22 -119 156 -195
207 -42 28 -98 70 -123 93 -25 24 -60 50 -77 59 -45 23 -259 93 -312 101 -25
4 -63 18 -86 31 -22 13 -48 24 -58 24 -17 0 -134 34 -171 50 -17 7 -108 27
-195 43 -14 2 -32 7 -41 11 -9 4 -22 -1 -32 -12z"/>
<path d="M1338 1305 c-3 -3 -34 -10 -68 -16 -67 -11 -120 -40 -120 -66 0 -18
-5 -17 -160 32 l-115 36 -220 -5 c-291 -5 -375 -18 -375 -58 0 -17 88 -143
125 -178 20 -19 44 -53 54 -75 10 -22 26 -48 35 -58 13 -13 19 -43 25 -122 6
-85 11 -109 28 -128 11 -12 28 -39 38 -59 9 -20 39 -62 66 -93 27 -31 49 -59
49 -64 0 -13 141 -151 154 -151 7 0 27 -7 44 -16 58 -29 101 10 45 40 -64 34
-213 204 -296 337 -41 68 -47 83 -47 132 0 56 -33 167 -50 167 -5 0 -13 15
-20 34 -6 18 -37 64 -70 102 -33 38 -60 71 -60 74 0 3 18 11 40 18 26 8 110
12 249 12 180 0 217 -3 263 -19 29 -10 82 -27 118 -37 36 -9 80 -25 98 -36 18
-10 39 -18 47 -18 8 0 42 -19 77 -43 87 -58 116 -71 135 -56 7 7 12 18 9 25
-3 8 4 20 16 28 26 19 18 31 -36 49 -61 21 -160 97 -146 111 7 7 99 12 267 14
233 3 261 2 312 -16 154 -53 219 -62 209 -29 -2 6 -17 19 -34 27 -16 8 -51 29
-79 46 -102 62 -114 64 -369 64 -128 0 -235 -2 -238 -5z"/>
</g>
</svg>
